# xmcd CD database file
#
# Track frame offsets:
#	150
#	12552
#	24717
#	35555
#	47572
#	59120
#	72532
#	86735
#	102567
#	113820
#	126585
#
# Disc length: 1859 seconds
#
# Revision: 7
# Processed by: cddbd v1.5.2PL0 Copyright (c) Steve Scherf et al.
# Submitted via: CDex 1.77
#
DISCID=a907410b
DTITLE=The Temptations - 20th Century Masters - The Millennium Collection - The Best Of Vol 1 The '60s
DYEAR=1999
DGENRE=Other
TTITLE0=My Girl
TTITLE1=The Way You Do The Things You Do
TTITLE2=Beauty Is Only Skin Deep
TTITLE3=Get Ready
TTITLE4=Ain't Too Proud To Beg
TTITLE5=You're My Everything
TTITLE6=I'm Gonna Make You Love Me (w Diana Ross and The Supremes)
TTITLE7=Cloud Nine
TTITLE8=(I Know) I'm Losing You
TTITLE9=I Wish It Would Rain
TTITLE10=I Can't Get Next To You
EXTD=YEAR: 1999
EXTT0=
EXTT1=
EXTT2=
EXTT3=
EXTT4=
EXTT5=
EXTT6=
EXTT7=
EXTT8=
EXTT9=
EXTT10=
PLAYORDER=
